<?xml version="1.0" encoding="UTF-8"?>
<svg width="276px" height="218px" viewBox="0 0 276 218" version="1.1" xmlns="http://www.w3.org/2000/svg" xmlns:xlink="http://www.w3.org/1999/xlink">
    <!-- Generator: Sketch 52.2 (67145) - http://www.bohemiancoding.com/sketch -->
    <title>Group 32</title>
    <desc>Created with Sketch.</desc>
    <defs>
        <polygon id="path-1" points="0 219.977919 275.866862 219.977919 275.866862 0.516985143 0 0.516985143"></polygon>
    </defs>
    <g id="Page-1" stroke="none" stroke-width="1" fill="none" fill-rule="evenodd">
        <g id="SIGN-UP-CUSTOMER" transform="translate(-108.000000, -238.000000)">
            <g id="Group-32" transform="translate(108.000000, 236.000000)">
                <polygon id="Fill-1" fill="#FFFFFF" points="98.9964088 2 96.1521942 8.93570916 89 9.64241761 94.3953889 14.6293933 92.8246068 22 99.0035912 18.1448148 105.186167 21.9932047 103.60892 14.6248632 109 9.63411227 101.846369 8.93344407"></polygon>
                <polygon id="Fill-2" fill="#FFFFFF" points="98 96 90.0786008 96 90.0786008 84.1774981 80.9213992 84.1774981 80.9213992 96 73 96 73 67 80.9213992 67 80.9213992 77.7513576 90.0786008 77.7513576 90.0786008 67 98 67"></polygon>
                <polygon id="Fill-3" fill="#FFFFFF" points="105 96 112 96 112 67 105 67"></polygon>
                <g id="Group-31">
                    <path d="M131.162081,79.7911759 L144.062276,79.7911759 L144.062276,95.7443894 C140.558797,96.9324183 136.709008,97.525692 132.511415,97.525692 C127.904683,97.525692 124.344358,96.2028619 121.828943,93.5579422 C119.314276,90.9130225 118.056943,87.1400679 118.056943,82.2413003 C118.056943,77.4632614 119.433203,73.7451161 122.18722,71.0861238 C124.940488,68.4271314 128.797008,67.0976352 133.759024,67.0976352 C135.639415,67.0976352 137.414341,67.2739138 139.084553,67.624249 C140.753268,67.9753249 142.208813,68.4204654 143.448943,68.9604112 L140.893886,75.2368182 C138.73974,74.1835906 136.375415,73.6577175 133.799415,73.6577175 C131.441073,73.6577175 129.619024,74.4161599 128.330276,75.934526 C127.042276,77.4536328 126.398276,79.622304 126.398276,82.4435023 C126.398276,85.2098912 126.980943,87.3193091 128.147024,88.7695339 C129.31161,90.2212401 130.990797,90.9463525 133.186081,90.9463525 C134.385821,90.9463525 135.489073,90.8315492 136.498081,90.6019426 L136.498081,85.9661116 L131.162081,85.9661116 L131.162081,79.7911759 Z" id="Fill-4" fill="#FFFFFF"></path>
                    <polygon id="Fill-6" fill="#FFFFFF" points="175.772059 97.1208438 167.655115 97.1208438 167.655115 85.0546476 158.271863 85.0546476 158.271863 97.1208438 150.15492 97.1208438 150.15492 67.523074 158.271863 67.523074 158.271863 78.4960466 167.655115 78.4960466 167.655115 67.523074 175.772059 67.523074"></polygon>
                    <path d="M201.183954,80.7835207 L202.655954,80.7835207 C203.869158,80.7835207 204.833288,80.4465175 205.549093,79.7710298 C206.26415,79.0962827 206.622426,78.165265 206.622426,76.9772361 C206.622426,74.9803995 205.504215,73.9804999 203.269288,73.9804999 L201.183954,73.9804999 L201.183954,80.7835207 Z M214.799954,76.9372401 C214.799954,80.2435749 213.814881,82.7981333 211.845483,84.599434 C209.876085,86.4014753 207.078686,87.3021257 203.453288,87.3021257 L201.183954,87.3021257 L201.183954,97.1211401 L193.10815,97.1211401 L193.10815,67.5233703 L203.453288,67.5233703 C207.22828,67.5233703 210.063076,68.3395846 211.957678,69.972754 C213.85228,71.6059234 214.799954,73.9271719 214.799954,76.9372401 Z" id="Fill-8" fill="#FFFFFF"></path>
                    <path d="M227.638966,80.3379358 L229.151356,80.3379358 C231.973437,80.3379358 233.384104,79.103245 233.384104,76.6331225 C233.384104,74.5955493 232.000364,73.5763923 229.233633,73.5763923 L227.638966,73.5763923 L227.638966,80.3379358 Z M227.638966,86.3506656 L227.638966,97.1206957 L219.563161,97.1206957 L219.563161,67.5229259 L229.356299,67.5229259 C237.479226,67.5229259 241.541437,70.4381888 241.541437,76.2687147 C241.541437,79.6972594 239.851031,82.3495858 236.470966,84.2249531 L245.180299,97.1206957 L236.021437,97.1206957 L229.683161,86.3506656 L227.638966,86.3506656 Z" id="Fill-10" fill="#FFFFFF"></path>
                    <path d="M255.29985,82.2815185 C255.29985,88.0046477 257.310387,90.8651014 261.330712,90.8651014 C263.375655,90.8651014 264.891785,90.1703563 265.880598,88.7793848 C266.867915,87.3898946 267.362322,85.2241861 267.362322,82.2815185 C267.362322,79.3262596 266.861184,77.1435157 265.859655,75.7318056 C264.857379,74.3223174 263.361444,73.617203 261.37185,73.617203 C257.32385,73.617203 255.29985,76.5050613 255.29985,82.2815185 M275.866712,82.2815185 C275.866712,87.2617593 274.633314,91.0473053 272.166517,93.638897 C269.69972,96.229748 266.087785,97.5259142 261.330712,97.5259142 C256.642452,97.5259142 253.04772,96.2230821 250.547265,93.618899 C248.046062,91.0139753 246.79546,87.2210227 246.79546,82.2407819 C246.79546,77.3146097 248.038582,73.5527651 250.526322,70.9545074 C253.013314,68.3562496 256.628989,67.0571208 261.37185,67.0571208 C266.128924,67.0571208 269.734127,68.346621 272.186712,70.92414 C274.640046,73.5016591 275.866712,77.2879457 275.866712,82.2815185" id="Fill-12" fill="#FFFFFF"></path>
                    <path d="M95.2838016,140.330506 C95.2838016,142.276237 94.7856553,144.004212 93.7886146,145.512949 C92.791574,147.022427 91.3539805,148.195643 89.4758341,149.032596 C87.5984358,149.869549 85.3941756,150.287285 82.8660455,150.287285 C80.7567772,150.287285 78.9878341,150.140633 77.5577203,149.84807 C76.1276065,149.554766 74.6384033,149.043706 73.0931024,148.313409 L73.0931024,140.760093 C74.7259154,141.589639 76.4230537,142.236982 78.186013,142.70212 C79.9482244,143.167259 81.566078,143.399828 83.040322,143.399828 C84.3111187,143.399828 85.2430862,143.182072 85.8354764,142.745079 C86.4278667,142.308826 86.7240618,141.746661 86.7240618,141.060063 C86.7240618,140.631217 86.604387,140.255699 86.3665333,139.93425 C86.1279317,139.611319 85.7449724,139.286908 85.2176553,138.957311 C84.6903382,138.628455 83.2856553,137.95593 81.0028585,136.940476 C78.9369724,136.010199 77.3871837,135.108808 76.3542407,134.236303 C75.3220455,133.363798 74.5561268,132.362417 74.0572325,131.23216 C73.5590862,130.101904 73.310013,128.76426 73.310013,127.21923 C73.310013,124.32915 74.3721268,122.076783 76.4956065,120.459908 C78.6190862,118.843034 81.5369073,118.034226 85.2505659,118.034226 C88.5304033,118.034226 91.8738179,118.786002 95.2838016,120.287333 L92.6614276,126.832602 C89.7002244,125.488293 87.1429236,124.815768 84.9902732,124.815768 C83.8780455,124.815768 83.0687447,125.008341 82.5631187,125.394969 C82.0574927,125.780856 81.8046797,126.260808 81.8046797,126.832602 C81.8046797,127.448096 82.1263057,127.999152 82.7695577,128.48577 C83.4120618,128.971647 85.156322,129.858224 88.0030862,131.146243 C90.7331675,132.362417 92.629265,133.667472 93.6913789,135.062887 C94.7527447,136.457562 95.2838016,138.213682 95.2838016,140.330506" id="Fill-14" fill="#FFFFFF"></path>
                    <polygon id="Fill-16" fill="#FFFFFF" points="118.991528 149.858587 100.18239 149.858587 100.18239 118.48544 118.991528 118.48544 118.991528 125.28772 108.741382 125.28772 108.741382 130.223521 118.233089 130.223521 118.233089 137.025801 108.741382 137.025801 108.741382 142.94891 118.991528 142.94891"></polygon>
                    <path d="M133.099242,132.068891 L134.703633,132.068891 C137.694007,132.068891 139.189193,130.759393 139.189193,128.141878 C139.189193,125.982095 137.722429,124.901463 134.790397,124.901463 L133.099242,124.901463 L133.099242,132.068891 Z M133.099242,138.442326 L133.099242,149.858957 L124.54025,149.858957 L124.54025,118.48507 L134.920543,118.48507 C143.530397,118.48507 147.835698,121.57513 147.835698,127.755991 C147.835698,131.3897 146.044315,134.20127 142.461551,136.188478 L151.692966,149.858957 L141.984348,149.858957 L135.266104,138.442326 L133.099242,138.442326 Z" id="Fill-18" fill="#FFFFFF"></path>
                    <path d="M172.366787,118.485144 L181.945259,118.485144 L171.564966,149.858291 L161.488348,149.858291 L151.151437,118.485144 L160.773291,118.485144 L165.086072,134.386511 C165.981389,137.92023 166.472055,140.380724 166.55882,141.768732 C166.659795,140.767352 166.862494,139.515625 167.166169,138.012813 C167.469096,136.510742 167.736868,135.33086 167.967242,134.472428 L172.366787,118.485144 Z" id="Fill-20" fill="#FFFFFF"></path>
                    <mask id="mask-2" fill="white">
                        <use xlink:href="#path-1"></use>
                    </mask>
                    <g id="Clip-23"></g>
                    <polygon id="Fill-22" fill="#FFFFFF" mask="url(#mask-2)" points="185.369528 149.858291 193.97265 149.858291 193.97265 118.485144 185.369528 118.485144"></polygon>
                    <path d="M214.927184,124.987676 C212.890468,124.987676 211.301037,125.813519 210.159639,127.465946 C209.018989,129.118373 208.448289,131.396663 208.448289,134.300815 C208.448289,140.338728 210.766989,143.356943 215.404387,143.356943 C216.80533,143.356943 218.163639,143.16363 219.478566,142.777742 C220.792745,142.391114 222.114403,141.925976 223.444289,141.382327 L223.444289,148.549756 C220.800972,149.708158 217.80985,150.287359 214.47242,150.287359 C209.690663,150.287359 206.024875,148.914904 203.474306,146.167772 C200.924485,143.421381 199.6492,139.450669 199.6492,134.257857 C199.6492,131.010775 200.267021,128.156247 201.502663,125.695753 C202.737558,123.23526 204.514728,121.342857 206.833428,120.020027 C209.152127,118.696456 211.879216,118.0343 215.013948,118.0343 C218.438143,118.0343 221.710501,118.771263 224.831021,120.245189 L222.208647,126.918593 C221.038826,126.374944 219.868257,125.917953 218.698436,125.545398 C217.528615,125.173583 216.271281,124.987676 214.927184,124.987676" id="Fill-24" fill="#FFFFFF" mask="url(#mask-2)"></path>
                    <polygon id="Fill-25" fill="#FFFFFF" mask="url(#mask-2)" points="248.430143 149.858587 229.621005 149.858587 229.621005 118.48544 248.430143 118.48544 248.430143 125.28772 238.179997 125.28772 238.179997 130.223521 247.671704 130.223521 247.671704 137.025801 238.179997 137.025801 238.179997 142.94891 248.430143 142.94891"></polygon>
                    <path d="M274.695171,140.330506 C274.695171,142.276237 274.197024,144.004212 273.199984,145.512949 C272.202943,147.022427 270.76535,148.195643 268.887203,149.032596 C267.009805,149.869549 264.805545,150.287285 262.277415,150.287285 C260.168146,150.287285 258.399203,150.140633 256.969089,149.84807 C255.538976,149.554766 254.049772,149.043706 252.504472,148.313409 L252.504472,140.760093 C254.137285,141.589639 255.834423,142.236982 257.597382,142.70212 C259.359593,143.167259 260.977447,143.399828 262.451691,143.399828 C263.722488,143.399828 264.654455,143.182072 265.246846,142.745079 C265.839236,142.308826 266.135431,141.746661 266.135431,141.060063 C266.135431,140.631217 266.015756,140.255699 265.777902,139.93425 C265.539301,139.611319 265.156341,139.286908 264.629024,138.957311 C264.101707,138.628455 262.697024,137.95593 260.414228,136.940476 C258.348341,136.010199 256.798553,135.108808 255.76561,134.236303 C254.733415,133.363798 253.967496,132.362417 253.468602,131.23216 C252.970455,130.101904 252.721382,128.76426 252.721382,127.21923 C252.721382,124.32915 253.783496,122.076783 255.906976,120.459908 C258.030455,118.843034 260.948276,118.034226 264.661935,118.034226 C267.941772,118.034226 271.285187,118.786002 274.695171,120.287333 L272.072797,126.832602 C269.111593,125.488293 266.554293,124.815768 264.401642,124.815768 C263.289415,124.815768 262.480114,125.008341 261.974488,125.394969 C261.468862,125.780856 261.216049,126.260808 261.216049,126.832602 C261.216049,127.448096 261.537675,127.999152 262.180927,128.48577 C262.823431,128.971647 264.567691,129.858224 267.414455,131.146243 C270.144537,132.362417 272.040634,133.667472 273.102748,135.062887 C274.164114,136.457562 274.695171,138.213682 274.695171,140.330506" id="Fill-26" fill="#FFFFFF" mask="url(#mask-2)"></path>
                    <polygon id="Fill-27" fill="#FFFFFF" mask="url(#mask-2)" points="46.2236423 43.2012191 39.7858862 39.4260425 33.351122 43.2071444 34.9869268 35.9774998 29.3674472 31.0861389 36.8164553 30.3921345 39.7784065 23.5891137 42.7463415 30.3899125 50.1953496 31.0765102 44.5811057 35.9730558"></polygon>
                    <polygon id="Fill-28" fill="#FFFFFF" mask="url(#mask-2)" points="16.8560455 110.241305 10.4182894 106.466128 3.9835252 110.24723 5.61933008 103.017585 -0.000149593496 98.1262244 7.44885854 97.4322199 10.4108098 90.6291991 13.3787447 97.4299979 20.8277528 98.1165957 15.2135089 103.013141"></polygon>
                    <polygon id="Fill-29" fill="#FFFFFF" mask="url(#mask-2)" points="35.8097659 185.208076 29.3720098 181.432159 22.9372455 185.214001 24.5730504 177.984356 18.9535707 173.092996 26.4018309 172.398991 29.3645301 165.59523 32.332465 172.396029 39.7814732 173.083367 34.1672293 177.979172"></polygon>
                    <polygon id="Fill-30" fill="#FFFFFF" mask="url(#mask-2)" points="106.091333 219.971623 99.6535772 216.196447 93.218813 219.978289 94.8546179 212.747904 89.2351382 207.856543 96.6841463 207.162539 99.6460976 200.359518 102.61478 207.160317 110.063789 207.847655 104.448797 212.74346"></polygon>
                </g>
            </g>
        </g>
    </g>
</svg>